<?xml version="1.0" encoding="utf-8"?>
<!-- Generator: Adobe Illustrator 16.0.0, SVG Export Plug-In . SVG Version: 6.00 Build 0)  -->
<!DOCTYPE svg PUBLIC "-//W3C//DTD SVG 1.1//EN" "http://www.w3.org/Graphics/SVG/1.1/DTD/svg11.dtd">
<svg version="1.1" id="Layer_1" xmlns="http://www.w3.org/2000/svg" xmlns:xlink="http://www.w3.org/1999/xlink" x="0px" y="0px"
	 width="28px" height="28px" viewBox="0 0 28 28" enable-background="new 0 0 28 28" xml:space="preserve">
<g>
	<path fill="#F4923B" d="M23.968,17.764c-1.389-0.202-4.39-0.785-6.316-2.465l-0.985-1.008c0,0-2.935-2.822-4.839-2.89l-1.344-0.022
		c-0.762-0.022-1.456-0.493-1.792-1.188C8.49,9.767,8.311,8.938,8.311,8.445C8.266,6.899,7.93,2.912,6.115,2.643
		C5.958,2.621,5.824,2.531,5.689,2.441C5.6,2.375,5.443,2.285,5.174,2.285c-0.583,0-0.448,0.65-0.874,0.717
		C3.853,3.069,3.942,3.517,3.942,3.517s0.179,0.292,0.896,0.448s1.568-0.067,1.814,1.725s-0.313,6.608,0.784,8.064
		C7.526,13.888,7.616,14,7.728,14.112c0.045,0.336,0.157,0.785,0.381,1.277c0,0,0.045,1.254,0,2.24
		c-0.045,0.985-0.247,1.926-0.202,2.24h1.389c0,0-0.045-1.344,0-1.994c0.045-0.537,0.336-0.313,0.224-1.859
		c0.605,0.516,1.209,0.963,1.77,1.232c0.538,0.246,1.344,0.358,2.195,0.358c0.269,0,0.538,0,0.784-0.022
		c0.045,0.225,0.112,0.426,0.157,0.561c0.224,0.537,0.447,0.984,0.447,0.984v0.538c0,0-0.336,0.224-0.447,0.448h1.523
		c0,0,0.269-0.762-0.225-1.971l0.27-0.829c0.156-0.045,0.312-0.09,0.425-0.157c0.135-0.066,0.269-0.09,0.426-0.09
		c0.964,0,2.665,0.986,5.757,1.076c0,0,0.067,0,0.156,0c0.225,0,0.65-0.023,1.188-0.112C24.125,17.987,24.125,17.785,23.968,17.764z
		 M5.264,3.136c-0.112,0-0.202-0.089-0.202-0.201c0-0.112,0.089-0.202,0.202-0.202c0.112,0,0.202,0.089,0.202,0.202
		C5.443,3.046,5.354,3.136,5.264,3.136z"/>
	<path fill="#F4923B" d="M14.561,19.197c-0.068-0.135-0.247-0.516-0.426-0.941c-0.044-0.09-0.067-0.201-0.112-0.358
		c-0.179,0-0.381,0.022-0.56,0.022l0,0c0,0.201,0,0.426,0.022,0.627c0.045,0.695,0.045,0.695,0.045,0.695s-0.292,0.492-0.336,0.648
		h0.986c0.089-0.156,0.247-0.291,0.358-0.381v-0.312H14.561z"/>
	<path fill="#F4923B" d="M10.528,17.181c-0.224-0.134-0.47-0.313-0.694-0.493c0,0.516-0.067,0.717-0.157,0.941
		c-0.045,0.09-0.067,0.156-0.067,0.269c-0.044,0.604,0,1.904,0,1.948l0.918-0.044c0,0,0.09-1.859,0.022-2.24
		C10.483,17.473,10.505,17.338,10.528,17.181z"/>
</g>
<text transform="matrix(1 0 0 1 2.8003 25.7607)" font-family="'HelveticaNeue-Bold'" font-size="1.12">Created by parkjisun</text>
<text transform="matrix(1 0 0 1 2.8003 26.8809)" font-family="'HelveticaNeue-Bold'" font-size="1.12">from the Noun Project</text>
</svg>
