<?xml version="1.0" encoding="utf-8"?>
<!-- Generator: Adobe Illustrator 16.0.0, SVG Export Plug-In . SVG Version: 6.00 Build 0)  -->
<!DOCTYPE svg PUBLIC "-//W3C//DTD SVG 1.1//EN" "http://www.w3.org/Graphics/SVG/1.1/DTD/svg11.dtd">
<svg version="1.1" id="Layer_1" xmlns="http://www.w3.org/2000/svg" xmlns:xlink="http://www.w3.org/1999/xlink" x="0px" y="0px"
	 width="256px" height="226.545px" viewBox="-84.337 -128.782 256 226.545" enable-background="new -84.337 -128.782 256 226.545"
	 xml:space="preserve">
<g>
	<path fill="#F4923B" d="M170.199,67.885c-17.645-2.557-55.774-9.977-80.243-31.318l-12.52-12.805c0,0-37.292-35.859-61.481-36.722
		l-17.08-0.279c-9.678-0.278-18.5-6.267-22.769-15.095c-2.562-5.385-4.839-15.919-4.839-22.185
		c-0.57-19.642-4.84-70.297-27.899-73.716c-1.997-0.279-3.698-1.421-5.416-2.568c-1.13-0.838-3.127-1.979-6.546-1.979
		c-7.407,0-5.688,8.257-11.104,9.107c-5.677,0.85-4.548,6.545-4.548,6.545s2.277,3.71,11.384,5.689
		c9.114,1.985,19.927-0.85,23.047,21.918c3.127,22.769-3.977,83.958,9.965,102.459c1.141,1.706,2.289,3.127,3.709,4.547
		c0.571,4.274,1.992,9.97,4.84,16.224c0,0,0.57,15.932,0,28.464c-0.57,12.52-3.14,24.469-2.562,28.464h17.645
		c0,0-0.571-17.073,0-25.337c0.57-6.824,4.268-3.971,2.848-23.625C-5.685,52.238,1.99,57.908,9.118,61.333
		c6.837,3.127,17.073,4.541,27.887,4.541c3.419,0,6.837,0,9.964-0.272c0.57,2.854,1.421,5.41,1.991,7.122
		c2.854,6.824,5.683,12.507,5.683,12.507v6.837c0,0-4.268,2.842-5.683,5.695h19.356c0,0,3.412-9.678-2.854-25.039l3.425-10.547
		c1.985-0.57,3.971-1.142,5.397-1.985c1.725-0.844,3.412-1.142,5.422-1.142c12.234,0,33.85,12.532,73.133,13.674
		c0,0,0.856,0,1.985,0c2.854,0,8.264-0.298,15.088-1.427C172.196,70.714,172.196,68.157,170.199,67.885z M-67.445-117.975
		c-1.428,0-2.568-1.129-2.568-2.55s1.129-2.568,2.568-2.568c1.42,0,2.562,1.129,2.562,2.568
		C-65.175-119.117-66.305-117.975-67.445-117.975z"/>
	<path fill="#F4923B" d="M50.673,86.1c-0.856-1.713-3.134-6.552-5.41-11.962c-0.559-1.142-0.85-2.556-1.421-4.541
		c-2.277,0-4.839,0.273-7.115,0.273l0,0c0,2.556,0,5.409,0.278,7.966c0.571,8.834,0.571,8.834,0.571,8.834s-3.711,6.254-4.269,8.239
		H45.84c1.129-1.985,3.133-3.697,4.547-4.852V86.1H50.673z"/>
	<path fill="#F4923B" d="M-0.566,60.489c-2.842-1.712-5.969-3.983-8.816-6.278c0,6.563-0.85,9.107-1.997,11.961
		c-0.571,1.142-0.851,1.985-0.851,3.425c-0.558,7.668,0,24.184,0,24.741l11.664-0.558c0,0,1.148-23.612,0.279-28.452
		C-1.137,64.187-0.857,62.475-0.566,60.489z"/>
</g>
</svg>
