<?xml version="1.0" encoding="utf-8"?>
<!-- Generator: Adobe Illustrator 16.0.0, SVG Export Plug-In . SVG Version: 6.00 Build 0)  -->
<!DOCTYPE svg PUBLIC "-//W3C//DTD SVG 1.1//EN" "http://www.w3.org/Graphics/SVG/1.1/DTD/svg11.dtd">
<svg version="1.1" id="Layer_1" xmlns="http://www.w3.org/2000/svg" xmlns:xlink="http://www.w3.org/1999/xlink" x="0px" y="0px"
	 width="28px" height="28px" viewBox="0 0 28 28" enable-background="new 0 0 28 28" xml:space="preserve">
<g>
	<path fill="#F4923B" d="M23.682,20.047c-1.389-0.201-4.389-0.785-6.314-2.465l-0.986-1.008c0,0-2.935-2.822-4.838-2.89
		l-1.344-0.022c-0.762-0.022-1.456-0.493-1.792-1.188c-0.202-0.424-0.381-1.253-0.381-1.746C7.98,9.182,7.645,5.195,5.83,4.926
		C5.672,4.904,5.539,4.814,5.403,4.724C5.314,4.658,5.157,4.568,4.888,4.568c-0.583,0-0.448,0.65-0.874,0.717
		C3.567,5.352,3.656,5.8,3.656,5.8s0.179,0.292,0.896,0.448C5.27,6.404,6.121,6.181,6.366,7.973
		c0.246,1.792-0.313,6.608,0.784,8.064c0.09,0.135,0.18,0.246,0.292,0.357c0.045,0.337,0.157,0.785,0.381,1.277
		c0,0,0.045,1.254,0,2.24c-0.045,0.985-0.247,1.926-0.202,2.24H9.01c0,0-0.045-1.344,0-1.994c0.045-0.537,0.336-0.312,0.224-1.859
		c0.605,0.517,1.209,0.963,1.77,1.232c0.538,0.246,1.344,0.357,2.195,0.357c0.27,0,0.538,0,0.784-0.021
		c0.045,0.225,0.112,0.426,0.157,0.561c0.225,0.537,0.447,0.984,0.447,0.984v0.538c0,0-0.336,0.224-0.447,0.448h1.523
		c0,0,0.268-0.762-0.225-1.971l0.27-0.83c0.156-0.045,0.312-0.09,0.424-0.156c0.137-0.066,0.27-0.09,0.428-0.09
		c0.963,0,2.664,0.986,5.756,1.076c0,0,0.066,0,0.156,0c0.225,0,0.65-0.023,1.188-0.112C23.84,20.27,23.84,20.068,23.682,20.047z
		 M4.979,5.419c-0.112,0-0.202-0.089-0.202-0.201s0.089-0.202,0.202-0.202c0.112,0,0.202,0.089,0.202,0.202
		C5.157,5.329,5.068,5.419,4.979,5.419z"/>
	<path fill="#F4923B" d="M14.275,21.48c-0.068-0.135-0.247-0.516-0.426-0.941c-0.045-0.09-0.067-0.201-0.112-0.357
		c-0.179,0-0.381,0.021-0.56,0.021l0,0c0,0.201,0,0.426,0.021,0.627c0.045,0.695,0.045,0.695,0.045,0.695s-0.292,0.492-0.336,0.648
		h0.986c0.089-0.156,0.246-0.291,0.357-0.382V21.48H14.275z"/>
	<path fill="#F4923B" d="M10.242,19.465c-0.224-0.135-0.47-0.313-0.694-0.494c0,0.517-0.067,0.717-0.157,0.941
		c-0.045,0.09-0.067,0.156-0.067,0.27c-0.044,0.604,0,1.903,0,1.947l0.918-0.044c0,0,0.09-1.858,0.022-2.239
		C10.197,19.756,10.219,19.621,10.242,19.465z"/>
</g>
</svg>
