<svg xmlns="http://www.w3.org/2000/svg" xmlns:xlink="http://www.w3.org/1999/xlink" version="1.1" x="0px" y="0px" viewBox="0 0 100 125" enable-background="new 0 0 100 100" xml:space="preserve"><g><path fill="#000000" d="M94.5,79.3c-6.2-0.9-19.6-3.5-28.2-11l-4.4-4.5c0,0-13.1-12.6-21.6-12.9l-6-0.1c-3.4-0.1-6.5-2.2-8-5.3   c-0.9-1.9-1.7-5.6-1.7-7.8c-0.2-6.9-1.7-24.7-9.8-25.9c-0.7-0.1-1.3-0.5-1.9-0.9c-0.4-0.3-1.1-0.7-2.3-0.7c-2.6,0-2,2.9-3.9,3.2   c-2,0.3-1.6,2.3-1.6,2.3s0.8,1.3,4,2c3.2,0.7,7-0.3,8.1,7.7s-1.4,29.5,3.5,36c0.4,0.6,0.8,1.1,1.3,1.6c0.2,1.5,0.7,3.5,1.7,5.7   c0,0,0.2,5.6,0,10s-1.1,8.6-0.9,10H29c0,0-0.2-6,0-8.9c0.2-2.4,1.5-1.4,1-8.3c2.7,2.3,5.4,4.3,7.9,5.5c2.4,1.1,6,1.6,9.8,1.6   c1.2,0,2.4,0,3.5-0.1c0.2,1,0.5,1.9,0.7,2.5c1,2.4,2,4.4,2,4.4v2.4c0,0-1.5,1-2,2h6.8c0,0,1.2-3.4-1-8.8l1.2-3.7   c0.7-0.2,1.4-0.4,1.9-0.7c0.6-0.3,1.2-0.4,1.9-0.4c4.3,0,11.9,4.4,25.7,4.8c0,0,0.3,0,0.7,0c1,0,2.9-0.1,5.3-0.5   C95.2,80.3,95.2,79.4,94.5,79.3z M11,14c-0.5,0-0.9-0.4-0.9-0.9c0-0.5,0.4-0.9,0.9-0.9s0.9,0.4,0.9,0.9C11.8,13.6,11.4,14,11,14z"/><path fill="#000000" d="M52.5,85.7c-0.3-0.6-1.1-2.3-1.9-4.2c-0.2-0.4-0.3-0.9-0.5-1.6c-0.8,0-1.7,0.1-2.5,0.1c0,0,0,0,0,0   c0,0.9,0,1.9,0.1,2.8c0.2,3.1,0.2,3.1,0.2,3.1s-1.3,2.2-1.5,2.9h4.4c0.4-0.7,1.1-1.3,1.6-1.7V85.7z"/><path fill="#000000" d="M34.5,76.7c-1-0.6-2.1-1.4-3.1-2.2c0,2.3-0.3,3.2-0.7,4.2c-0.2,0.4-0.3,0.7-0.3,1.2c-0.2,2.7,0,8.5,0,8.7   l4.1-0.2c0,0,0.4-8.3,0.1-10C34.3,78,34.4,77.4,34.5,76.7z"/></g><text x="0" y="115" fill="#000000" font-size="5px" font-weight="bold" font-family="'Helvetica Neue', Helvetica, Arial-Unicode, Arial, Sans-serif">Created by parkjisun</text><text x="0" y="120" fill="#000000" font-size="5px" font-weight="bold" font-family="'Helvetica Neue', Helvetica, Arial-Unicode, Arial, Sans-serif">from the Noun Project</text></svg>